<?xml version="1.0" encoding="UTF-8"?>
<svg width="60px" height="60px" viewBox="0 0 60 60" version="1.1" xmlns="http://www.w3.org/2000/svg" xmlns:xlink="http://www.w3.org/1999/xlink">
    <!-- Generator: Sketch 48.1 (47250) - http://www.bohemiancoding.com/sketch -->
    <title>Artboard 2 Copy</title>
    <desc>Created with Sketch.</desc>
    <defs></defs>
    <g id="Page-1" stroke="none" stroke-width="1" fill="none" fill-rule="evenodd">
        <g id="Artboard-2-Copy" fill="#2B3942" fill-rule="nonzero">
            <g id="resume" style="mix-blend-mode: multiply;" transform="translate(10.000000, 3.000000)">
                <path d="M39.1651169,8.3628 L31.101974,0.2646 C30.9397792,0.1008 30.7157532,0 30.4675325,0 L4.48051948,0 C2.00996104,0 0,2.0187 0,4.5 L0,43.2 C0,45.6813 2.00996104,47.7 4.48051948,47.7 L14.3376623,47.7 L14.3376623,54 L16.1298701,54 L16.1298701,47.7 L29.5714286,47.7 C30.0660779,47.7 30.4675325,47.2977 30.4675325,46.8 L30.4675325,42.3 C30.4675325,40.626 31.6118571,39.2139 33.1558442,38.8143 L33.1558442,46.8 L33.1558442,54 L34.9480519,54 L34.9480519,47.7 C37.4186104,47.7 39.4285714,45.6813 39.4285714,43.2 L39.4285714,9 C39.4285714,8.7507 39.3282078,8.5257 39.1651169,8.3628 Z M31.3636364,3.0726 L36.3692727,8.1 L31.3636364,8.1 L31.3636364,3.0726 Z M37.6363636,43.2 C37.6363636,44.6886 36.4302078,45.9 34.9480519,45.9 L34.9480519,37.8 C34.9480519,37.3023 34.5465974,36.9 34.0519481,36.9 C31.0867403,36.9 28.6753247,39.3219 28.6753247,42.3 L28.6753247,45.9 L4.48051948,45.9 C2.99836364,45.9 1.79220779,44.6886 1.79220779,43.2 L1.79220779,4.5 C1.79220779,3.0114 2.99836364,1.8 4.48051948,1.8 L29.5714286,1.8 L29.5714286,9 C29.5714286,9.4977 29.9728831,9.9 30.4675325,9.9 L37.6363636,9.9 L37.6363636,43.2 Z" id="Shape"></path>
                <path d="M17.9464286,5.14285714 L5.19642857,5.14285714 C4.69371429,5.14285714 4.28571429,5.54994643 4.28571429,6.05357143 L4.28571429,18.8035714 C4.28571429,19.3071964 4.69371429,19.7142857 5.19642857,19.7142857 L8.83928571,19.7142857 L14.3035714,19.7142857 L17.9464286,19.7142857 C18.4491429,19.7142857 18.8571429,19.3071964 18.8571429,18.8035714 L18.8571429,6.05357143 C18.8571429,5.54994643 18.4491429,5.14285714 17.9464286,5.14285714 Z M13.3928571,17.8928571 L9.75,17.8928571 L9.75,16.0714286 C9.75,15.0669107 10.5669107,14.25 11.5714286,14.25 C12.5759464,14.25 13.3928571,15.0669107 13.3928571,16.0714286 L13.3928571,17.8928571 Z M10.6607143,11.5178571 C10.6607143,11.0151429 11.069625,10.6071429 11.5714286,10.6071429 C12.0732321,10.6071429 12.4821429,11.0151429 12.4821429,11.5178571 C12.4821429,12.0205714 12.0732321,12.4285714 11.5714286,12.4285714 C11.069625,12.4285714 10.6607143,12.0205714 10.6607143,11.5178571 Z M17.0357143,17.8928571 L15.2142857,17.8928571 L15.2142857,16.0714286 C15.2142857,14.8774821 14.6296071,13.8265179 13.7398393,13.1616964 C14.0886429,12.7026964 14.3035714,12.1371429 14.3035714,11.5178571 C14.3035714,10.0115357 13.07775,8.78571429 11.5714286,8.78571429 C10.0651071,8.78571429 8.83928571,10.0115357 8.83928571,11.5178571 C8.83928571,12.1371429 9.05421429,12.7026964 9.40301786,13.1616964 C8.51325,13.8265179 7.92857143,14.8774821 7.92857143,16.0714286 L7.92857143,17.8928571 L6.10714286,17.8928571 L6.10714286,6.96428571 L17.0357143,6.96428571 L17.0357143,17.8928571 Z" id="Shape"></path>
                <rect id="Rectangle-path" x="20.5714286" y="7.71428571" width="4.28571429" height="1.71428571"></rect>
                <rect id="Rectangle-path" x="20.5714286" y="12" width="5.14285714" height="1.71428571"></rect>
                <rect id="Rectangle-path" x="27.4285714" y="12" width="4.28571429" height="1.71428571"></rect>
                <rect id="Rectangle-path" x="20.5714286" y="15.4285714" width="12" height="1.71428571"></rect>
                <rect id="Rectangle-path" x="8.57142857" y="22.2857143" width="6.85714286" height="1.71428571"></rect>
                <rect id="Rectangle-path" x="18" y="22.2857143" width="5.14285714" height="1.71428571"></rect>
                <rect id="Rectangle-path" x="24.8571429" y="22.2857143" width="8.57142857" height="1.71428571"></rect>
                <rect id="Rectangle-path" x="5.14285714" y="25.7142857" width="6.85714286" height="1.71428571"></rect>
                <rect id="Rectangle-path" x="14.5714286" y="25.7142857" width="14.5714286" height="1.71428571"></rect>
                <rect id="Rectangle-path" x="30.8571429" y="25.7142857" width="3.42857143" height="1.71428571"></rect>
                <rect id="Rectangle-path" x="5.14285714" y="30" width="3.42857143" height="1.71428571"></rect>
                <rect id="Rectangle-path" x="11.1428571" y="30" width="11.1428571" height="1.71428571"></rect>
                <rect id="Rectangle-path" x="23.1428571" y="30" width="11.1428571" height="1.71428571"></rect>
                <rect id="Rectangle-path" x="5.14285714" y="33.4285714" width="3.42857143" height="1.71428571"></rect>
                <rect id="Rectangle-path" x="11.1428571" y="33.4285714" width="11.1428571" height="1.71428571"></rect>
                <rect id="Rectangle-path" x="23.1428571" y="33.4285714" width="11.1428571" height="1.71428571"></rect>
                <rect id="Rectangle-path" x="5.14285714" y="36.8571429" width="8.57142857" height="1.71428571"></rect>
                <rect id="Rectangle-path" x="15.4285714" y="36.8571429" width="12.8571429" height="1.71428571"></rect>
                <rect id="Rectangle-path" x="5.14285714" y="40.2857143" width="3.42857143" height="1.71428571"></rect>
                <rect id="Rectangle-path" x="11.1428571" y="40.2857143" width="15.4285714" height="1.71428571"></rect>
            </g>
        </g>
    </g>
</svg>